<svg id="Hardees_logo" xmlns="http://www.w3.org/2000/svg" xmlns:xlink="http://www.w3.org/1999/xlink" width="132.115" height="37.616" viewBox="0 0 132.115 37.616">
  <defs>
    <clipPath id="clip-path">
      <rect id="Rectangle_342" data-name="Rectangle 342" width="132.115" height="37.616" fill="none"/>
    </clipPath>
  </defs>
  <g id="Group_710" data-name="Group 710">
    <g id="Group_710-2" data-name="Group 710" clip-path="url(#clip-path)">
      <path id="Path_2499" data-name="Path 2499" d="M41.023,13.875l0-.009c-.016-.045-.033-.091-.054-.135a.552.552,0,0,0-.455-.347l-.086-.009a4.27,4.27,0,0,0-.45-.032c-.051,0-.1,0-.147.006l-.025,0-.049,0-.013,0a1.782,1.782,0,0,1-.4.051.7.7,0,0,1-.122-.015H39.21a.623.623,0,0,0-.1-.012l-.292-.007c-.179,0-.382-.007-.579-.018-.17-.009-.351-.013-.59-.013l-.322,0-.321,0c-.188,0-.436,0-.688-.019a3.515,3.515,0,0,0-.714.016,1.818,1.818,0,0,1-.364-.006c-.045,0-.089-.008-.134-.011-.162-.009-.324-.01-.461-.01h-.29c-.188,0-.39,0-.594-.02-.071-.006-.147-.009-.24-.009l-.184,0h-.025l-.182,0a.594.594,0,0,0-.082.007h-.007l-.05.006h-.007c-.077.007-.165.014-.251.014a1.072,1.072,0,0,1-.226-.022A1.228,1.228,0,0,0,32,13.283a1.19,1.19,0,0,1-.44-.008.944.944,0,0,0-.4,0,1.3,1.3,0,0,1-.3.045.635.635,0,0,1-.1-.008,2.293,2.293,0,0,0-.366-.036,1.21,1.21,0,0,0-.137.007,1.92,1.92,0,0,1-.406.009.7.7,0,0,1-.085-.017.466.466,0,0,0-.111-.017h-.01c-.048,0-.093,0-.141,0a1.423,1.423,0,0,0-.275.021.669.669,0,0,1-.131.012,1.639,1.639,0,0,1-.313-.041l-.049-.01a.748.748,0,0,0-.142-.016.342.342,0,0,0-.086.01,1.066,1.066,0,0,1-.255.022h-.058c-.128,0-.256,0-.384,0h-.161l-.27,0H27.24c-.123,0-.223,0-.313,0h-.01a.133.133,0,0,1-.142-.1,3.968,3.968,0,0,1-.139-.507l-.021-.09c-.017-.075-.036-.161-.061-.243-.019-.06-.039-.119-.06-.181l0-.015c-.039-.114-.08-.233-.109-.352a1.966,1.966,0,0,0-.193-.529.219.219,0,0,1-.023-.05c-.03-.1-.066-.2-.1-.3a2.853,2.853,0,0,1-.151-.507,2.082,2.082,0,0,0-.1-.343c-.016-.046-.032-.093-.048-.142l-.016-.047-.094-.288-.083-.235-.005-.015c-.067-.191-.136-.388-.2-.582-.024-.073-.049-.146-.074-.218l0-.012c-.015-.043-.03-.086-.044-.129l-.035-.111-.01-.031-.009-.025c-.027-.086-.057-.189-.079-.295a1.908,1.908,0,0,0-.135-.413l0-.006L24.96,7.47l0-.009c-.014-.032-.029-.066-.042-.1s-.033-.095-.05-.154v0c-.016-.063-.031-.127-.046-.19l-.007-.031c-.018-.078-.037-.156-.057-.235-.013-.051-.022-.1-.031-.153v0a.214.214,0,0,0,0-.031L24.7,6.5a1.092,1.092,0,0,0-.036-.136c-.029-.084-.056-.169-.085-.258-.047-.144-.1-.307-.159-.462-.02-.052-.038-.106-.061-.174v0c-.023-.084-.052-.174-.09-.275-.024-.073-.046-.135-.067-.189l-.01-.024a.844.844,0,0,0-.053-.133h0c-.038-.092-.08-.2-.115-.3-.011-.034-.023-.068-.035-.1l0-.007a1.9,1.9,0,0,1-.074-.24L23.9,4.14a2.2,2.2,0,0,0-.109-.394.267.267,0,0,0-.044-.075,1.075,1.075,0,0,1-.068-.195c-.008-.028-.016-.052-.02-.065l-.011-.035a.252.252,0,0,1-.01-.035.372.372,0,0,1-.006-.043V3.29c0-.026,0-.052,0-.076V3.188a.345.345,0,0,0-.014-.1l-.014-.043-.031-.034a.254.254,0,0,1-.088-.186V2.794l-.008-.03c-.021-.081-.1-.293-.119-.338a.313.313,0,0,1-.012-.038l0-.007c0-.01-.006-.019-.009-.028l0-.007c-.015-.035-.029-.071-.042-.107l0-.01a2.33,2.33,0,0,1-.085-.342,1.3,1.3,0,0,0-.113-.333,1.454,1.454,0,0,1-.136-.4l0-.021a.46.46,0,0,0-.015-.1C22.918.979,22.9.922,22.888.867l-.054-.2C22.824.625,22.81.571,22.8.514A.709.709,0,0,0,22.179,0H22.12c-.027,0-.055,0-.082,0l-.026,0H22a.664.664,0,0,0-.363.133L21.614.15l-.007,0c-.022.017-.041.034-.056.047l-.026.026a.8.8,0,0,0-.058.066l0,.005a.641.641,0,0,0-.128.276,4.623,4.623,0,0,1-.265.853l-.017.045c-.017.044-.035.086-.053.127l-.007.015c-.026.058-.055.124-.078.192h0a.431.431,0,0,0-.035.128h0a2.25,2.25,0,0,1-.167.5,1.675,1.675,0,0,0-.074.2c-.021.065-.036.132-.05.2l0,.02c-.009.043-.019.086-.031.131l-.008.027-.008.026a.946.946,0,0,1-.036.1l-.018.041c-.023.052-.05.112-.074.171v0a1.478,1.478,0,0,0-.075.2c-.05.165-.1.329-.143.484l-.019.061-.024.08a3.115,3.115,0,0,1-.143.4,6.913,6.913,0,0,0-.258.662c-.009.025-.018.053-.029.091l-.012.037c-.012.036-.023.072-.034.108-.082.272-.179.56-.3.909-.092.256-.155.454-.205.641l-.009.027a.389.389,0,0,0-.031.14V7.2l0,.034a.9.9,0,0,1-.054.225L19.01,7.6l.011.009c-.009.027-.017.055-.026.083l-.006.019a1.251,1.251,0,0,1-.16.379.793.793,0,0,0-.093.2l0,.006-.037.1c-.02.053-.038.1-.055.151l-.024.069a1.458,1.458,0,0,0-.079.283,1.43,1.43,0,0,1-.179.516,1.112,1.112,0,0,0-.127.429,1.06,1.06,0,0,1-.1.345l-.025.049a1.1,1.1,0,0,0-.082.185c-.067.222-.139.448-.209.666l-.006.02-.064.2,0,.012-.027.08-.006.016c-.018.052-.036.105-.051.159a2.225,2.225,0,0,1-.165.447,3.717,3.717,0,0,0-.261.722l-.005.018a2.842,2.842,0,0,0-.08.355c0,.031-.011.07-.1.092a.162.162,0,0,1-.1,0,.38.38,0,0,0-.145-.026.451.451,0,0,1-.121-.017l-.048-.016-.05.008-.034.007-.008,0a1.281,1.281,0,0,1-.258.023c-.094,0-.189-.008-.27-.015l-.063-.007a1.006,1.006,0,0,0-.119-.011h-.638a.245.245,0,0,1-.079,0,.645.645,0,0,0-.2-.03,1.674,1.674,0,0,0-.282.032l-.054.009a.92.92,0,0,1-.337,0l-.055-.012a.813.813,0,0,0-.168-.025h-.019a1.651,1.651,0,0,0-.332.043.772.772,0,0,1-.321,0l-.018,0a1.255,1.255,0,0,0-.268-.038h-.039c-.041,0-.091,0-.137,0l-.077,0h-.2l-.184,0c-.12,0-.216,0-.3.011-.194.016-.343.023-.483.023h-.064a.42.42,0,0,1-.106-.01.809.809,0,0,0-.211-.026,1.73,1.73,0,0,0-.217.017,1.615,1.615,0,0,1-.2.017.639.639,0,0,1-.173-.022.785.785,0,0,0-.2-.032H10.44c-.135,0-.3,0-.458,0-.091,0-.184,0-.275,0a3.966,3.966,0,0,0-.512.027,2.334,2.334,0,0,1-.249.014c-.076,0-.155,0-.234.012a2.191,2.191,0,0,1-.423-.01,2.249,2.249,0,0,0-.35-.014H7.932a.053.053,0,0,1-.017,0,.616.616,0,0,0-.205-.029l-.1,0c-.044,0-.089,0-.137,0H7.454L7.4,13.1c-.108.012-.217.023-.238.02L6.979,13.1l-.063-.008-.186-.023-.047-.007-.045.014a.594.594,0,0,1-.17.021H6.41c-.037,0-.075,0-.11,0l-.088,0a1.1,1.1,0,0,0-.21.019.511.511,0,0,1-.269-.007,1.038,1.038,0,0,0-.328-.046H5.367l-.232,0H4.771l-.039.007a.831.831,0,0,1-.213.026,1.993,1.993,0,0,1-.389-.051.528.528,0,0,0-.211,0l-.064.015a.877.877,0,0,1-.2.032l-.041,0-.051,0a.665.665,0,0,0-.42.167.586.586,0,0,0-.227.65.722.722,0,0,0,.257.429l.046.036c.082.064.175.137.271.2.257.179.52.359.775.532l.056.038a.493.493,0,0,1,.12.118.832.832,0,0,0,.214.206l.11.069.006,0a2.482,2.482,0,0,1,.373.267,2.889,2.889,0,0,0,.406.311c.051.032.1.068.151.1l.006,0a2.06,2.06,0,0,0,.3.184.886.886,0,0,1,.239.175,2.467,2.467,0,0,0,.384.318c.048.031.095.065.14.1l.007.006a1.454,1.454,0,0,0,.267.169,1.572,1.572,0,0,1,.394.277c.073.065.148.123.227.184l.007.005c.061.047.132.1.2.157l.033.028a1.071,1.071,0,0,0,.146.113,10.413,10.413,0,0,1,.886.614,3.95,3.95,0,0,0,.35.244,1.213,1.213,0,0,1,.41.344.439.439,0,0,0,.139.12c.085.051.175.111.283.188l.213.158.009.007c.11.082.224.168.339.246l.1.066c.091.061.185.123.274.194l.016.013a2.649,2.649,0,0,0,.452.309.913.913,0,0,1,.388.322l0,.006a.38.38,0,0,0,.1.094c.093.07.194.141.335.239l.176.122c.224.157.456.319.687.476.123.084.238.176.35.265a4.937,4.937,0,0,0,.411.306c.041.026.05.06.031.12-.045.141-.083.285-.12.424-.012.048-.025.1-.038.143s-.019.077-.028.115a1.627,1.627,0,0,1-.067.235c-.034.087-.07.173-.105.259l-.019.045c-.023.055-.045.11-.068.165a5.065,5.065,0,0,0-.223.651,1.548,1.548,0,0,1-.118.315,1.528,1.528,0,0,0-.15.422l0,.017a1.257,1.257,0,0,1-.073.283c-.09.207-.178.429-.284.721a1.227,1.227,0,0,0-.076.283c0,.02,0,.041-.006.061v.01a.607.607,0,0,1-.027.166c-.038.105-.079.21-.12.313l-.009.024c-.047.122-.1.248-.14.374-.03.085-.062.17-.093.253l-.007.017a5.055,5.055,0,0,0-.2.607,2.6,2.6,0,0,1-.125.357l-.011.027a9.56,9.56,0,0,0-.406,1.227L11.45,30a2.329,2.329,0,0,1-.119.389,4.778,4.778,0,0,0-.194.564l-.023.079A.832.832,0,0,1,11,31.3a.979.979,0,0,0-.152.347c-.031.134-.075.267-.118.4l0,.011c-.031.094-.06.183-.086.275-.031.11-.066.221-.1.319a5.333,5.333,0,0,0-.15.53,3.01,3.01,0,0,1-.3.832.777.777,0,0,0-.058.144c-.037.122-.08.243-.122.361l-.017.049c-.046.131-.093.266-.134.4a.816.816,0,0,0-.017.442.725.725,0,0,0,.416.51.584.584,0,0,0,.361.062.75.75,0,0,0,.47-.245,1,1,0,0,1,.264-.237,6.123,6.123,0,0,0,.611-.414l.022-.017.138-.1c.151-.109.3-.211.447-.3.036-.023.072-.043.109-.064a1.333,1.333,0,0,0,.192-.123l.111-.092a5.262,5.262,0,0,1,.46-.353c.168-.111.337-.228.509-.349l.016-.011c.161-.112.328-.228.494-.338l.172-.112c.243-.16.5-.324.731-.5.2-.154.414-.306.629-.46l.2-.142.075-.053.025-.017a2.185,2.185,0,0,0,.356-.291,1,1,0,0,1,.367-.239.943.943,0,0,0,.285-.181A2.6,2.6,0,0,1,17.68,31L17.69,31a1.271,1.271,0,0,0,.236-.164,2.62,2.62,0,0,1,.253-.2l.059-.044c.1-.075.2-.148.3-.215.058-.041.115-.083.177-.128a2.613,2.613,0,0,1,.512-.321.453.453,0,0,0,.2-.155.765.765,0,0,1,.426-.309.621.621,0,0,0,.211-.116l.092-.075c.066-.055.141-.117.219-.173a.946.946,0,0,0,.163-.137,1.03,1.03,0,0,1,.312-.245c.092-.046.182-.1.261-.149.063-.038.134-.082.209-.122a.83.83,0,0,0,.323-.249.411.411,0,0,1,.161-.132.113.113,0,0,1,.056-.017.133.133,0,0,1,.071.026c.106.067.206.144.3.22l.085.066c.159.121.313.244.469.37l.067.055.006,0a2.485,2.485,0,0,0,.265.2c.04.025.081.049.124.074l.007,0a2.2,2.2,0,0,1,.265.171c.036.029.068.06.1.092a1.216,1.216,0,0,0,.133.115c.106.076.211.157.313.236l.012.009c.075.059.153.119.229.176l.073.055a2.186,2.186,0,0,0,.45.286.59.59,0,0,1,.153.1,4.089,4.089,0,0,0,.322.257.748.748,0,0,1,.159.141,1.042,1.042,0,0,0,.369.28l.008,0a1.331,1.331,0,0,1,.19.107c.1.074.208.151.308.226l.008.006c.162.12.33.244.5.359a7.07,7.07,0,0,1,.873.71l.016.015.029.028.019.014.163.109.015.011c.148.1.287.194.437.282a2.26,2.26,0,0,1,.4.293,1.4,1.4,0,0,0,.394.277,1.189,1.189,0,0,1,.328.222c.143.129.292.239.45.357l.075.055c.079.059.157.112.243.171l.008.006c.078.054.159.109.236.167.051.038.1.077.151.117l.005,0a3.066,3.066,0,0,0,.264.2l.162.106.135.088a.441.441,0,0,1,.133.126.734.734,0,0,0,.4.3.617.617,0,0,1,.186.1c.074.059.146.123.222.19a3.155,3.155,0,0,0,.313.257c.032.022.063.047.1.076a.662.662,0,0,0,.232.142.994.994,0,0,0,.266.039.755.755,0,0,0,.508-.2.57.57,0,0,0,.2-.636,1.932,1.932,0,0,1-.058-.231,1.729,1.729,0,0,0-.142-.456,1.218,1.218,0,0,1-.143-.438,1.148,1.148,0,0,0-.158-.506.773.773,0,0,1-.073-.182c-.02-.072-.036-.144-.053-.213-.021-.09-.041-.175-.066-.263l-.028-.1a3.191,3.191,0,0,0-.182-.527,1.67,1.67,0,0,1-.11-.3c-.017-.064-.035-.128-.055-.2a3.148,3.148,0,0,1-.1-.414,2.09,2.09,0,0,0-.13-.43c-.054-.14-.1-.283-.15-.421-.054-.157-.114-.336-.183-.506a3.8,3.8,0,0,1-.218-.724c0-.021-.007-.042-.011-.068a1.047,1.047,0,0,0-.058-.233c-.045-.106-.084-.217-.122-.324l0-.011c-.043-.121-.084-.235-.132-.35a5.018,5.018,0,0,1-.179-.523l-.031-.1c-.018-.058-.039-.113-.064-.176a1.818,1.818,0,0,1-.083-.249c-.049-.21-.1-.411-.162-.653-.116-.452-.267-.9-.385-1.232-.013-.036-.025-.073-.037-.111a1.854,1.854,0,0,0-.129-.323,2.519,2.519,0,0,1-.219-.659l-.006-.025c-.011-.048-.023-.1-.035-.145s-.018-.073-.026-.109a1.615,1.615,0,0,0-.16-.462.693.693,0,0,1-.071-.154c-.071-.25-.156-.5-.251-.746a1.668,1.668,0,0,1-.066-.228.151.151,0,0,1,.016-.112.086.086,0,0,1,.055-.039.452.452,0,0,0,.188-.1l.033-.025c.129-.1.268-.179.4-.26a4.813,4.813,0,0,0,.431-.281l.081-.06.012-.009a1.844,1.844,0,0,0,.332-.286.788.788,0,0,1,.2-.156l.073-.044c.121-.072.235-.141.348-.22s.226-.155.337-.23l.034-.023c.11-.074.223-.15.332-.227.167-.117.3-.218.418-.318s.223-.185.322-.258l.027-.02a3.2,3.2,0,0,1,.594-.377l.015-.007a.447.447,0,0,0,.067-.049.565.565,0,0,1,.057-.043,1.041,1.041,0,0,0,.163-.133,1.305,1.305,0,0,1,.132-.112,1.171,1.171,0,0,1,.118-.069l.006,0a1.1,1.1,0,0,0,.108-.064c.162-.114.325-.223.483-.328l.01-.007c.261-.175.51-.373.753-.565l.183-.146.032-.025.021-.017a1.252,1.252,0,0,1,.313-.2,1.275,1.275,0,0,0,.431-.294,1.138,1.138,0,0,1,.337-.234,1.124,1.124,0,0,0,.37-.262,1.16,1.16,0,0,1,.357-.254,2.043,2.043,0,0,0,.307-.182.659.659,0,0,0,.062-.052.534.534,0,0,1,.067-.055l.028-.019a1.359,1.359,0,0,0,.254-.2,2.349,2.349,0,0,1,.5-.381c.084-.053.171-.107.255-.168.047-.034.1-.066.146-.1l.018-.012c.046-.03.089-.058.131-.088a1.03,1.03,0,0,0,.122-.107.919.919,0,0,1,.126-.108c.134-.088.274-.174.409-.256l.018-.011.164-.1.079-.047a1.908,1.908,0,0,0,.161-.1.754.754,0,0,0,.254-.463h0a.549.549,0,0,0,0-.332M6.891,16.844Z" transform="translate(-1.987 0)" fill="#ffc72c"/>
      <path id="Path_2500" data-name="Path 2500" d="M47.839,48.073a.128.128,0,0,0,.106.017.122.122,0,0,0,.05-.029,3.521,3.521,0,0,1,1.892-.972.294.294,0,0,0,.237-.309.323.323,0,0,0-.267-.329A2.076,2.076,0,0,0,47.774,47.9a.151.151,0,0,0,.066.177" transform="translate(-32.881 -31.967)"/>
      <path id="Path_2501" data-name="Path 2501" d="M72.2,47.23a3.519,3.519,0,0,1,1.878,1,.12.12,0,0,0,.049.03.129.129,0,0,0,.107-.015.152.152,0,0,0,.068-.176,2.075,2.075,0,0,0-2.061-1.475.323.323,0,0,0-.272.325.3.3,0,0,0,.232.313" transform="translate(-49.54 -32.066)"/>
      <path id="Path_2502" data-name="Path 2502" d="M58.417,66.1c-.055.119.04.278.254.426a2.019,2.019,0,0,0,1.316.521,1.591,1.591,0,0,0,.471-.059,3.115,3.115,0,0,0,.853-.442c.216-.145.313-.3.26-.423-.043-.1-.179-.134-.344-.094l-.4.1c-.189.046-.189.046-.547.12l-.037.007a1.2,1.2,0,0,1-.246.025,1.254,1.254,0,0,1-.247-.029l-.03-.007c-.363-.08-.363-.08-.549-.129l-.4-.1c-.166-.043-.3-.007-.347.089" transform="translate(-40.203 -45.425)"/>
      <path id="Path_2503" data-name="Path 2503" d="M50.141,54.726a1.721,1.721,0,0,0-1.381.777.536.536,0,0,0,.014.626.359.359,0,0,0,.377.034,3.12,3.12,0,0,1,1.057-.211,1.809,1.809,0,0,1,.823.194.714.714,0,0,0,.349.037.478.478,0,0,0,.261-.19.6.6,0,0,0-.017-.715,1.724,1.724,0,0,0-1.483-.553" transform="translate(-33.502 -37.668)"/>
      <path id="Path_2504" data-name="Path 2504" d="M68.952,56.309a.715.715,0,0,0,.35-.031,1.8,1.8,0,0,1,.825-.183,3.128,3.128,0,0,1,1.053.227.358.358,0,0,0,.378-.028.536.536,0,0,0,.023-.626,1.879,1.879,0,0,0-2.86-.266.6.6,0,0,0-.027.714.473.473,0,0,0,.258.194" transform="translate(-47.215 -37.765)"/>
      <path id="Path_2505" data-name="Path 2505" d="M56.965,69.742c-.207-.189-.434-.49-.6-.357-.108.084-.035.194-.019.337.012.111,0,.22-.177.4-.134.137-.259.256-.38.36a5.938,5.938,0,0,1-1.053.739,5.154,5.154,0,0,1-4.871-.036,5.9,5.9,0,0,1-1.042-.755c-.119-.105-.243-.226-.374-.365-.173-.187-.185-.3-.171-.407.018-.143.092-.252-.014-.337-.169-.136-.4.162-.61.348-.311.276-.475.345-.356.552s.323-.074.468.144h0A6.715,6.715,0,0,0,51.1,73.126a4.175,4.175,0,0,0,1.176.188h.013a4.152,4.152,0,0,0,1.178-.171,6.718,6.718,0,0,0,3.377-2.706h0c.149-.215.353.063.471-.136s-.041-.277-.348-.558" transform="translate(-32.53 -47.699)"/>
      <line id="Line_39" data-name="Line 39" transform="translate(8.921 28.62)" fill="#ce1329"/>
      <path id="Path_2506" data-name="Path 2506" d="M41.059,13.37a.234.234,0,0,0,.078,0l.035,0h.6a.939.939,0,0,1,.119.011l.063.007c.081.007.175.015.27.015a1.3,1.3,0,0,0,.257-.023l.008,0,.035-.007.05-.008.048.016a.45.45,0,0,0,.121.017.38.38,0,0,1,.145.026.162.162,0,0,0,.1,0c.093-.021.1-.06.1-.092a2.894,2.894,0,0,1,.08-.355l.006-.019a3.722,3.722,0,0,1,.261-.722,2.224,2.224,0,0,0,.165-.447c.015-.054.033-.108.051-.159l.005-.016c.009-.026.018-.053.027-.08l0-.012.064-.2.006-.02c.07-.218.142-.443.209-.665a1.114,1.114,0,0,1,.082-.185l.025-.049a1.053,1.053,0,0,0,.1-.345,1.106,1.106,0,0,1,.127-.429,1.438,1.438,0,0,0,.179-.516,1.445,1.445,0,0,1,.079-.283l.024-.069c.016-.048.035-.1.055-.151l.037-.1,0-.006a.793.793,0,0,1,.093-.2,1.259,1.259,0,0,0,.16-.379l.006-.019c.008-.028.017-.055.025-.083l-.011-.009.057-.139a.9.9,0,0,0,.054-.225l0-.034V7.415a.4.4,0,0,1,.031-.14l.009-.027c.05-.186.113-.385.205-.641.125-.348.221-.637.3-.908.011-.036.023-.072.034-.108l.012-.037c.011-.038.02-.066.029-.091a6.8,6.8,0,0,1,.258-.662,3.047,3.047,0,0,0,.143-.4l.024-.08.019-.061c.044-.155.093-.319.143-.484a1.481,1.481,0,0,1,.075-.2v0c.024-.06.05-.119.074-.171l.018-.041a.926.926,0,0,0,.036-.1l.007-.026.008-.027c.012-.044.021-.088.03-.131l0-.02c.014-.065.029-.132.05-.2a1.657,1.657,0,0,1,.074-.2,2.234,2.234,0,0,0,.166-.5h0a.416.416,0,0,1,.035-.128h0c.023-.067.052-.133.077-.192l.007-.016c.018-.041.036-.083.053-.127l.017-.045A4.6,4.6,0,0,0,47.285.8a.649.649,0,0,1,.128-.276l0-.005a.8.8,0,0,1,.058-.066L47.5.427c.014-.014.034-.031.056-.047l.007,0,.021-.015c.017-.012.033-.023.05-.033l-.3.145-.088.086a.117.117,0,0,1-.037.027.116.116,0,0,0-.037.027c-.014.015-.03.029-.043.044A.537.537,0,0,1,47.063.7c-.016.013-.031.027-.046.041a.273.273,0,0,0-.084.066A.139.139,0,0,1,46.9.837a.441.441,0,0,0-.1.089L46.75.968a.394.394,0,0,0-.106.088.044.044,0,0,1-.012.009.324.324,0,0,0-.094.078.2.2,0,0,1-.05.036.191.191,0,0,0-.036.029.228.228,0,0,1-.05.035.668.668,0,0,0-.067.038.4.4,0,0,0-.068.062.088.088,0,0,1-.023.02.343.343,0,0,0-.093.079L46.1,1.5A.319.319,0,0,0,46,1.573a.226.226,0,0,1-.05.036.041.041,0,0,0-.018.024.058.058,0,0,1-.03.032.435.435,0,0,0-.134.1.282.282,0,0,1-.094.077.555.555,0,0,1-.125.088.142.142,0,0,0-.026.016.681.681,0,0,1-.1.074.337.337,0,0,1-.062.045c-.029.013-.045.042-.073.056a.3.3,0,0,0-.072.057l-.045.042a.313.313,0,0,0-.092.079c-.029.029-.057.059-.085.089a.185.185,0,0,1-.048.038.087.087,0,0,0-.024.019q-.047.05-.093.1a.15.15,0,0,0-.024.039.175.175,0,0,1-.025.038l-.511.573a.229.229,0,0,0-.05.076.094.094,0,0,1-.018.026c-.012.016-.025.032-.039.047s-.02.048-.037.066a.42.42,0,0,0-.06.106c-.021.041-.035.085-.054.126a.327.327,0,0,1-.044.08.157.157,0,0,0-.022.04c-.022.052-.046.1-.069.153a.5.5,0,0,1-.025.055.414.414,0,0,0-.054.092l-.048.06a.226.226,0,0,0-.031.052c-.031.075-.064.15-.1.224a.085.085,0,0,0-.009.029.164.164,0,0,1-.017.058c-.013.028-.022.057-.035.084a.472.472,0,0,1-.048.144.088.088,0,0,0-.006.03c0,.016,0,.031,0,.046s0,.021,0,.031a.067.067,0,0,1-.008.029c-.014.033-.028.066-.04.1a.407.407,0,0,1-.014.059c-.012.022-.02.047-.031.07a.15.15,0,0,0-.012.043.091.091,0,0,1-.006.03c-.012.023-.017.049-.029.071a.609.609,0,0,0-.025.087.208.208,0,0,0-.021.073.069.069,0,0,1-.008.029c-.013.028-.025.056-.037.084s-.013.039-.023.057a.064.064,0,0,0-.009.029c0,.037-.026.066-.032.1a.159.159,0,0,0-.023.072c0,.026-.021.046-.023.072a.268.268,0,0,1-.021.073c-.016.037-.031.075-.047.112s-.02.047-.032.069-.008.05-.018.074a.155.155,0,0,0-.018.058.128.128,0,0,1-.017.058.044.044,0,0,0-.006.014.414.414,0,0,1-.041.13c-.017.042-.037.084-.055.126a.7.7,0,0,0-.036.085.527.527,0,0,1-.031.1.308.308,0,0,1-.035.116c-.022.057-.049.112-.074.168,0,.026-.026.045-.026.071s-.022.058-.026.088a.324.324,0,0,1-.027.087c-.01.023-.018.047-.027.071a.41.41,0,0,1-.038.115.212.212,0,0,0-.016.042.2.2,0,0,1-.021.073.1.1,0,0,0-.007.045c0,.016,0,.031,0,.046-.02.031-.015.069-.028.1a.232.232,0,0,0-.021.073.329.329,0,0,1-.052.109.37.37,0,0,0-.042.081.135.135,0,0,0-.015.059.065.065,0,0,1-.008.029.112.112,0,0,0-.014.059v.015a.119.119,0,0,1-.014.059.257.257,0,0,0-.015.059.486.486,0,0,1-.026.071.3.3,0,0,0-.027.087.248.248,0,0,1-.021.057.228.228,0,0,1-.031.1c-.041.093-.079.188-.12.281a.085.085,0,0,0-.011.028.264.264,0,0,1-.028.087c-.009.024-.017.048-.026.071a.238.238,0,0,1-.025.087.111.111,0,0,0,0,.031.064.064,0,0,1-.009.029c-.022.035-.014.08-.036.116a.063.063,0,0,0-.006.03.2.2,0,0,1-.016.059.032.032,0,0,0,0,.014c0,.036,0,.036-.009.051a.122.122,0,0,0-.019.024c-.012.028-.024.056-.033.085a.36.36,0,0,1-.013.059c-.011.023-.02.047-.029.07a.186.186,0,0,0-.011.029.232.232,0,0,1-.014.059c-.012.023-.02.046-.03.07a.125.125,0,0,0-.01.029.577.577,0,0,1-.044.129.091.091,0,0,0-.009.029.348.348,0,0,1-.032.1.268.268,0,0,0-.023.072c0,.026-.021.047-.023.072a.248.248,0,0,1-.026.087c-.007.014-.01.029-.017.042a.188.188,0,0,0-.015.059.159.159,0,0,1-.018.042c-.009.022-.082.219-.086.251a.152.152,0,0,1-.017.058.032.032,0,0,0-.006.014.445.445,0,0,1-.042.13c-.017.042-.037.084-.055.126a.09.09,0,0,0-.012.028.721.721,0,0,1-.026.1.269.269,0,0,1-.021.073c-.009.018-.014.038-.022.057a.129.129,0,0,0-.012.044.128.128,0,0,1-.013.044.1.1,0,0,0-.013.044.139.139,0,0,1-.017.058.1.1,0,0,0-.009.029.2.2,0,0,1-.016.058c-.021.046-.041.093-.06.14-.01.023-.019.047-.03.07a.278.278,0,0,1-.025.088.939.939,0,0,0-.041.1.246.246,0,0,1-.013.028.051.051,0,0,0,0,.015.408.408,0,0,1-.038.115.134.134,0,0,0-.016.043.351.351,0,0,1-.033.1.661.661,0,0,1-.037.084c-.018.042-.036.084-.054.126a.135.135,0,0,0-.012.06c0,.02,0,.041,0,.061a.064.064,0,0,1-.008.029.081.081,0,0,0-.012.028.207.207,0,0,1-.025.087.413.413,0,0,1-.03.1.252.252,0,0,0-.031.1.387.387,0,0,1-.065.12.184.184,0,0,0-.038.048.062.062,0,0,0-.007.029l-.036.083-.018.043a1.656,1.656,0,0,1,.275-.031.656.656,0,0,1,.2.029M45.25,3.842a.066.066,0,0,1,.037-.014h.01l0,0a.089.089,0,0,1,.052.053l0,.007,0,.007c-.008.026-.007.045-.012.062l-.011.013-.012,0a.107.107,0,0,1-.036.005h-.006c-.025,0-.077,0-.079-.061a.119.119,0,0,1,.053-.079m-.288.3h.006a.089.089,0,0,1,.081.087.068.068,0,0,1-.015.053l-.007.006h0A.065.065,0,0,1,45,4.294l0,0h-.039a.061.061,0,0,1-.066-.061c0-.031.007-.074.074-.1m-.122.868L44.848,5h0a.061.061,0,0,1,.024-.009l0,0h.04a.061.061,0,0,1,.065.059.093.093,0,0,1-.065.1l-.006,0h-.006a.087.087,0,0,1-.083-.084.066.066,0,0,1,.014-.053M43.809,7.772h-.029a.225.225,0,0,1-.057-.015.272.272,0,0,1-.1-.07.052.052,0,0,1,.007-.078.26.26,0,0,1,.2-.083h.052a.15.15,0,0,1,.036,0,.059.059,0,0,1,.021.01.055.055,0,0,1,.012.011.065.065,0,0,1,.008.015.123.123,0,0,1,0,.014.057.057,0,0,1,0,.013.15.15,0,0,1-.113.176l-.039,0m.2.672v.007A.125.125,0,0,1,44,8.474l-.008.013,0,.007,0,0a.07.07,0,0,1-.049.018h0a.1.1,0,0,1-.077-.109.118.118,0,0,1,.007-.033V8.367a.107.107,0,0,1,.012-.024l.008-.012,0-.007,0,0a.067.067,0,0,1,.045-.018h0a.1.1,0,0,1,.076.109.118.118,0,0,1-.006.032m.6-1.011a.183.183,0,0,0-.01.022c0,.009-.009.019-.014.028l-.01.018a.114.114,0,0,1-.066.065l-.007,0h0l-.009,0-.014,0-.008,0h-.035a.1.1,0,0,1-.1-.058.124.124,0,0,1,.041-.153.228.228,0,0,0,.022-.021.174.174,0,0,1,.06-.044l.017-.007a.116.116,0,0,1,.05-.014.08.08,0,0,1,.023,0,.071.071,0,0,1,.016.009l.009.007a.06.06,0,0,1,.011.009c.03.034.067.076.032.138m-.067-1.165c.012,0,.014-.006.016-.008l0,0h0l0-.007a.073.073,0,0,1,.022-.037l.008-.006L44.6,6.2a.063.063,0,0,1,.028-.009h.008l0,0h0a.094.094,0,0,1,.051.025l.006,0,0,0a.076.076,0,0,1,.013.067.178.178,0,0,1-.134.133l-.021,0-.014,0a.081.081,0,0,1-.063-.06.076.076,0,0,1,.055-.1m-.346-.9a.209.209,0,0,1,.085-.147.128.128,0,0,1,.073-.023.132.132,0,0,1,.052.011.139.139,0,0,1,.085.1.178.178,0,0,1,0,.044c0,.006,0,.012,0,.017a.189.189,0,0,1-.059.131.182.182,0,0,1-.125.054.088.088,0,0,1-.067-.032.2.2,0,0,1-.045-.16m-.43.59c.012-.04.048-.041.072-.042h.012l.024,0a.176.176,0,0,1,.121.051.362.362,0,0,0,.158.09.112.112,0,0,1,.089.113.14.14,0,0,1-.065.114l-.008.007a.055.055,0,0,1-.036.014.07.07,0,0,1-.028-.007.09.09,0,0,1-.03-.023l-.027-.031c-.014-.017-.028-.033-.045-.051a.517.517,0,0,0-.043-.04l-.007-.005-.007,0a.279.279,0,0,0-.041-.027l-.009,0-.011,0-.005,0a.237.237,0,0,0-.038-.013.078.078,0,0,1-.042-.032l-.01-.012a.084.084,0,0,1-.021-.089m-.272.732a.261.261,0,0,0,.136-.032.154.154,0,0,1,.078-.027h0a.1.1,0,0,1,.109.072.067.067,0,0,1-.018.056.02.02,0,0,1-.008.006l-.007.005a.094.094,0,0,1-.03.015.1.1,0,0,1-.032.006h-.031a.2.2,0,0,0-.038,0l-.008,0-.026.008-.01.006a.114.114,0,0,0-.023.015l0,0h0a.2.2,0,0,0-.021.022.13.13,0,0,1-.055.035l-.014.006a.15.15,0,0,1-.06.016.058.058,0,0,1-.031-.008.1.1,0,0,1-.029-.083c0-.094.03-.125.121-.125m-.4,2.833h-.007a.023.023,0,0,1-.013,0V9.5h0l0,.011-.011,0-.007,0,0,0a.02.02,0,0,1-.006-.009l-.005-.01a.106.106,0,0,1-.01-.044.092.092,0,0,1,.074-.107h.01a.063.063,0,0,1,.04.016.032.032,0,0,1,.008.009l.008.01a.116.116,0,0,1,.013.021.044.044,0,0,1,0,.008.075.075,0,0,1,.006.026.093.093,0,0,1-.092.1m-.079-1.351c.007-.017.035-.074.086-.082h.007c.034,0,.05.034.061.059l.006.013a.187.187,0,0,1,.025.09.093.093,0,0,1-.085.1H43.1a.094.094,0,0,1-.09-.084.122.122,0,0,1,0-.027c0-.007,0-.015,0-.027a.078.078,0,0,1,0-.043m-1.151,3.465h0a.085.085,0,0,1,.079.067.088.088,0,0,1-.011.074.1.1,0,0,1-.074.045h-.012a.025.025,0,0,1-.013,0h-.006a.039.039,0,0,1-.019-.007.066.066,0,0,1-.023-.047.107.107,0,0,1,.077-.127" transform="translate(-27.937 -0.224)" fill="#ce1329"/>
      <path id="Path_2507" data-name="Path 2507" d="M30.851,65.9a.667.667,0,0,1-.232-.142c-.035-.029-.065-.054-.1-.076a3.189,3.189,0,0,1-.313-.257c-.075-.068-.147-.132-.222-.19a.612.612,0,0,0-.186-.1.733.733,0,0,1-.4-.3.44.44,0,0,0-.133-.126l-.135-.088-.162-.106a3.016,3.016,0,0,1-.263-.2l-.005,0c-.05-.04-.1-.079-.151-.118-.077-.057-.158-.113-.236-.166l-.008-.006c-.085-.059-.164-.113-.243-.171l-.075-.055c-.158-.117-.307-.228-.45-.356a1.194,1.194,0,0,0-.328-.222,1.41,1.41,0,0,1-.394-.277,2.264,2.264,0,0,0-.4-.293c-.15-.088-.289-.182-.437-.282l-.016-.011-.162-.109-.019-.014-.029-.028-.016-.016a7.089,7.089,0,0,0-.873-.709c-.17-.115-.337-.239-.5-.359l-.008-.006c-.1-.074-.2-.151-.308-.226a1.347,1.347,0,0,0-.191-.107l-.008,0a1.044,1.044,0,0,1-.369-.28.773.773,0,0,0-.159-.141A4.026,4.026,0,0,1,23,60.1a.585.585,0,0,0-.153-.1,2.193,2.193,0,0,1-.45-.285l-.073-.055c-.077-.057-.154-.117-.229-.176l-.012-.009c-.1-.079-.207-.161-.313-.237a1.246,1.246,0,0,1-.133-.115c-.034-.033-.067-.063-.1-.092a2.178,2.178,0,0,0-.264-.171l-.007,0c-.043-.025-.084-.049-.124-.074a2.5,2.5,0,0,1-.265-.2l-.006,0-.066-.054c-.156-.126-.309-.249-.469-.371l-.085-.065c-.1-.076-.2-.153-.3-.22a.132.132,0,0,0-.071-.026.112.112,0,0,0-.057.017.419.419,0,0,0-.161.132.827.827,0,0,1-.323.249c-.074.04-.146.084-.208.122-.079.048-.169.1-.261.149a1.028,1.028,0,0,0-.312.245.944.944,0,0,1-.163.137c-.078.056-.153.118-.219.173l-.092.075a.621.621,0,0,1-.211.116.764.764,0,0,0-.426.31.453.453,0,0,1-.2.155,2.625,2.625,0,0,0-.511.321c-.062.046-.119.088-.177.129-.1.067-.2.14-.3.215l-.059.044a2.624,2.624,0,0,0-.253.2,1.259,1.259,0,0,1-.236.163l-.01.006a2.585,2.585,0,0,0-.471.341.95.95,0,0,1-.285.181,1,1,0,0,0-.367.239,2.185,2.185,0,0,1-.356.29l-.025.017-.075.053-.2.142c-.215.155-.425.306-.629.461-.236.178-.488.343-.731.5l-.172.112c-.167.11-.333.226-.495.338l-.015.011c-.172.12-.341.237-.51.349a5.436,5.436,0,0,0-.46.353l-.111.092a1.346,1.346,0,0,1-.192.123c-.037.021-.073.041-.109.064-.145.091-.295.193-.447.3l-.137.1-.022.016a6.019,6.019,0,0,1-.612.414,1,1,0,0,0-.264.237.754.754,0,0,1-.47.245.584.584,0,0,1-.361-.062.724.724,0,0,1-.417-.51.816.816,0,0,1,.017-.442c.04-.136.088-.271.134-.4l.017-.049c.041-.118.084-.24.122-.361a.761.761,0,0,1,.058-.145,3.01,3.01,0,0,0,.3-.832,5.417,5.417,0,0,1,.149-.53c.031-.1.067-.208.1-.318.026-.093.055-.182.086-.276l0-.011c.043-.132.087-.264.118-.4a.979.979,0,0,1,.152-.347.833.833,0,0,0,.111-.269l.023-.079a4.836,4.836,0,0,1,.194-.564,2.359,2.359,0,0,0,.119-.389l.023-.093a9.64,9.64,0,0,1,.406-1.227l.011-.027a2.641,2.641,0,0,0,.125-.357,5.146,5.146,0,0,1,.2-.607l.007-.017c.031-.083.063-.168.093-.253.044-.125.093-.251.141-.373l.009-.024c.04-.1.081-.207.12-.313a.619.619,0,0,0,.027-.166v-.01c0-.02,0-.041.005-.061a1.221,1.221,0,0,1,.076-.283c.106-.292.194-.514.284-.721a1.249,1.249,0,0,0,.072-.283l0-.017a1.521,1.521,0,0,1,.15-.422,1.564,1.564,0,0,0,.118-.315,5.069,5.069,0,0,1,.222-.651l.068-.165.019-.045c.036-.086.071-.172.106-.259a1.619,1.619,0,0,0,.067-.236c.009-.039.018-.077.028-.115s.026-.1.038-.144c.037-.14.075-.284.12-.424.019-.06.011-.093-.031-.12a4.934,4.934,0,0,1-.411-.306c-.112-.089-.227-.181-.35-.265-.231-.157-.463-.319-.687-.476l-.176-.123c-.141-.1-.241-.17-.335-.239a.38.38,0,0,1-.1-.094l0-.006a.913.913,0,0,0-.388-.322,2.663,2.663,0,0,1-.452-.309l-.016-.013c-.089-.07-.183-.133-.274-.194l-.1-.066c-.115-.078-.229-.163-.339-.246l-.009-.007c-.069-.052-.141-.106-.213-.158-.107-.077-.2-.137-.282-.188a.432.432,0,0,1-.139-.12,1.219,1.219,0,0,0-.41-.344,4.018,4.018,0,0,1-.35-.243,10.456,10.456,0,0,0-.886-.615,1.118,1.118,0,0,1-.146-.112L5.875,47.6c-.065-.056-.135-.11-.2-.157l-.007-.005c-.079-.061-.155-.119-.228-.184a1.566,1.566,0,0,0-.394-.277,1.461,1.461,0,0,1-.266-.169L4.775,46.8c-.045-.034-.092-.068-.14-.1a2.452,2.452,0,0,1-.384-.318.9.9,0,0,0-.239-.175,2.03,2.03,0,0,1-.3-.184l-.007,0c-.049-.035-.1-.07-.151-.1a2.909,2.909,0,0,1-.406-.311,2.5,2.5,0,0,0-.373-.267l-.006,0-.111-.069a.841.841,0,0,1-.214-.205.483.483,0,0,0-.119-.119L2.273,44.9c-.255-.174-.518-.353-.775-.532-.1-.067-.189-.14-.271-.2l-.046-.036A.722.722,0,0,1,.924,43.7a.631.631,0,0,1-.012-.291.6.6,0,0,1,.045-.127l-.128.223-.016.028a.129.129,0,0,0,0,.015.108.108,0,0,1-.01.044.69.69,0,0,1-.039.083.172.172,0,0,0-.039.066.759.759,0,0,0-.051.111.251.251,0,0,1-.029.053.25.25,0,0,0-.03.054c-.013.033-.028.065-.044.1a.068.068,0,0,0-.007.029c0,.02,0,.041,0,.061a.126.126,0,0,1-.012.059.064.064,0,0,0-.008.029.33.33,0,0,1-.034.1.1.1,0,0,1-.038.047c-.008.006-.018.009-.026.015a.177.177,0,0,0-.023.02.282.282,0,0,0-.051.109.179.179,0,0,1-.017.058.086.086,0,0,0-.007.045.182.182,0,0,1-.02.088c-.009.018-.013.038-.023.056a.1.1,0,0,0-.008.045.182.182,0,0,1,0,.045.464.464,0,0,0-.026.088,1.089,1.089,0,0,1-.066.153c-.005.009-.012.017-.018.025a.138.138,0,0,0-.017.026c-.042.1-.093.2-.133.308a.074.074,0,0,0-.007.029c0,.02,0,.041,0,.061a.177.177,0,0,1-.013.059.139.139,0,0,0,.009.117.211.211,0,0,1,.015.027.325.325,0,0,1,.04.1.066.066,0,0,0,.014.027.1.1,0,0,1,.017.042.084.084,0,0,0,.015.043.106.106,0,0,1,.022.056.054.054,0,0,0,.011.028.471.471,0,0,1,.03.054.374.374,0,0,0,.04.065.387.387,0,0,0,.028.028.524.524,0,0,0,.113.108l.045.034.007.006c.015.014.03.028.044.043s.017.037.029.054a.047.047,0,0,1,.009.012.151.151,0,0,0,.051.065.141.141,0,0,0,.117.067c.175.007.264.151.393.231a.149.149,0,0,0,.024.032l.027.026a.776.776,0,0,0,.224.167.982.982,0,0,1,.107.07l.032.028h0a.1.1,0,0,1,.035.065.054.054,0,0,0,.012.028.238.238,0,0,0,.036.033.106.106,0,0,0,.092.062.307.307,0,0,1,.2.091c.016.014.034.026.051.038a.108.108,0,0,0,.036.03l.014.007a.754.754,0,0,1,.091.072c.07.068.157.115.23.179l0,0a.243.243,0,0,0,.026.037c.014.015.03.027.045.041l.007.008a.283.283,0,0,0,.176.114.287.287,0,0,1,.112.056l.061.052a.389.389,0,0,0,.032.024,2.168,2.168,0,0,0,.328.24c.219.121.383.311.593.441h0a.26.26,0,0,1,.083.094c.007.008.016.013.023.021A.4.4,0,0,0,3.9,49a1.89,1.89,0,0,0,.282.164.238.238,0,0,1,.058.04l.249.189a.1.1,0,0,0,.018.013c.04.029.079.06.121.087a1.844,1.844,0,0,1,.322.271l.006.012a.072.072,0,0,0,.018.024l.052.045a.344.344,0,0,0,.107.087,1.559,1.559,0,0,1,.374.254l.044.04.018.016.066.061a.174.174,0,0,0,.016.011l0,0,.008.005a.28.28,0,0,0,.094.044.694.694,0,0,1,.162.07.313.313,0,0,1,.049.073.848.848,0,0,0,.054.092.053.053,0,0,0,.023.019l.035.016a.174.174,0,0,0,.079.04.843.843,0,0,1,.27.156c.165.127.334.251.5.377.058.044.119.084.175.13h0l.031.028.018.018,0,0a.145.145,0,0,1,.023.039.439.439,0,0,0,.038.066.1.1,0,0,0,.029.028.131.131,0,0,0,.11.06.377.377,0,0,1,.246.127c.034.03.069.058.106.085l.011.007c.029.021.058.041.088.061s.091.05.134.079l.132.117,0,0c.078.068.16.13.244.19l.005,0,0,0,.173.121.123.083.038.032.019.01c.037.026.074.053.109.082.142.119.309.2.455.319a.359.359,0,0,1,.075.1.042.042,0,0,1,0,.043.113.113,0,0,0-.015.059c0,.01,0,.021,0,.031a.076.076,0,0,1-.013.043.125.125,0,0,0-.014.059.041.041,0,0,1-.009.028.336.336,0,0,0-.06.105.624.624,0,0,0-.031.07c-.011.035-.031.065-.041.1a.993.993,0,0,1-.079.094l-.018.024a.063.063,0,0,0-.01.029.45.45,0,0,0,0,.092.967.967,0,0,1,.007.137.105.105,0,0,1-.005.03c0,.01-.011.018-.013.028s-.022.046-.03.07a.369.369,0,0,1-.046.079.1.1,0,0,0-.01.028c0,.015,0,.031-.01.045a.4.4,0,0,1-.029.07c-.016.028-.011.06-.024.088a.209.209,0,0,0-.02.073.132.132,0,0,1-.017.043.073.073,0,0,0-.008.029.133.133,0,0,1-.015.059.069.069,0,0,0-.009.029.181.181,0,0,1-.02.073.092.092,0,0,0-.007.029c-.007.036-.009.044-.019.057a.851.851,0,0,1-.059.07.237.237,0,0,0-.047.078c-.029.065-.055.131-.084.2a.2.2,0,0,0-.014.059.19.19,0,0,1-.016.043.052.052,0,0,0,0,.014.251.251,0,0,0,0,.031l0,.077a.109.109,0,0,1-.014.058c-.012.023-.006.051-.017.074a.183.183,0,0,0-.019.089.106.106,0,0,1-.016.058.062.062,0,0,0-.008.029.145.145,0,0,1-.015.059.3.3,0,0,1-.055.091c-.019.017-.035.037-.052.056a.1.1,0,0,0-.021.041.219.219,0,0,1-.011.028.114.114,0,0,0-.012.059c0,.036,0,.071,0,.107a.112.112,0,0,1-.016.058.044.044,0,0,0-.006.014.57.57,0,0,1-.047.144.1.1,0,0,0-.008.029.248.248,0,0,1-.022.073c-.009.024-.022.046-.03.07a.207.207,0,0,1-.038.066.11.11,0,0,0-.023.056A.07.07,0,0,1,8.1,56.6a.158.158,0,0,0-.018.089.12.12,0,0,1-.015.058.119.119,0,0,0-.007.029.189.189,0,0,1-.009.045c-.01.023-.02.047-.03.07a.281.281,0,0,1-.063.1.233.233,0,0,0-.028.036.053.053,0,0,0-.009.029c0,.005,0,.01,0,.016a.1.1,0,0,1-.013.044.026.026,0,0,0,0,.029.051.051,0,0,1,.005.057.1.1,0,0,0-.012.044.281.281,0,0,1,0,.061.34.34,0,0,1-.024.056l-.012.028a.421.421,0,0,1-.052.093.305.305,0,0,0-.045.1.239.239,0,0,1-.025.088.191.191,0,0,1-.023.088.035.035,0,0,0,0,.015.138.138,0,0,1-.033.084c-.025.032-.034.074-.065.1-.012.028-.026.055-.037.084a.086.086,0,0,0,0,.03.507.507,0,0,0,0,.061.161.161,0,0,1-.016.089.29.29,0,0,1-.029.1.286.286,0,0,1-.029.1.306.306,0,0,0-.029.1.247.247,0,0,0-.018.042.319.319,0,0,1-.023.088.089.089,0,0,0-.007.045.17.17,0,0,1-.017.074c-.027.06-.051.122-.078.182a.088.088,0,0,0-.01.029.463.463,0,0,1-.045.129c-.007.019-.016.037-.024.056l-.031.07a.144.144,0,0,0-.011.044.078.078,0,0,1,0,.03.182.182,0,0,0-.02.089.123.123,0,0,1-.015.058c-.012.028-.025.056-.036.084A.181.181,0,0,1,7.1,59.6a.454.454,0,0,1-.031.034.309.309,0,0,0-.048.1.129.129,0,0,0,0,.061c0,.036,0,.071,0,.107A.136.136,0,0,1,7,59.967.091.091,0,0,0,7,60a.15.15,0,0,1-.01.044c-.034.074-.065.149-.1.224a.2.2,0,0,1-.032.052c-.02.023-.041.045-.062.068a.109.109,0,0,0-.022.04.184.184,0,0,1-.011.028.121.121,0,0,0-.015.059.142.142,0,0,1-.015.074.074.074,0,0,0-.009.029.187.187,0,0,1-.021.073.116.116,0,0,0-.008.045.079.079,0,0,1-.008.029.111.111,0,0,0-.013.043.365.365,0,0,1,0,.061c0,.019-.017.037-.02.057A.27.27,0,0,1,6.63,61a.081.081,0,0,0-.007.029.136.136,0,0,1-.017.058c-.013.023-.007.051-.018.074a.186.186,0,0,0-.021.073.047.047,0,0,1,0,.015.063.063,0,0,1-.007.014.129.129,0,0,0-.016.059.1.1,0,0,1-.013.043.076.076,0,0,0-.01.028.224.224,0,0,1-.026.087c-.028.065-.059.13-.084.2a.556.556,0,0,1-.038.083.57.57,0,0,1-.047.06l-.017.025a.059.059,0,0,0-.008.029,1.354,1.354,0,0,0,0,.138.063.063,0,0,1-.006.029.125.125,0,0,0-.017.058c0,.032-.022.056-.03.086a.126.126,0,0,1-.024.039c-.012.016-.026.031-.04.046s-.021.023-.03.035a.086.086,0,0,0-.016.042.107.107,0,0,1-.012.044.477.477,0,0,1-.041.082.15.15,0,0,0-.034.084c0,.024-.023.045-.023.072a.134.134,0,0,1-.016.059.069.069,0,0,0-.006.03c0,.026,0,.051,0,.077A.058.058,0,0,1,6,62.819a.127.127,0,0,0-.017.074.154.154,0,0,1-.016.074.112.112,0,0,0-.007.045.134.134,0,0,1-.018.073q-.054.135-.114.266a.153.153,0,0,1-.019.041c-.035.038-.051.088-.084.128a.075.075,0,0,0-.013.043,1.191,1.191,0,0,0,.007.137.179.179,0,0,1-.023.118c-.028.077-.066.149-.1.223a.158.158,0,0,0-.015.059.062.062,0,0,1-.007.029.139.139,0,0,0-.017.058.176.176,0,0,1-.02.089.5.5,0,0,0-.023.056.26.26,0,0,1-.055.09.153.153,0,0,0-.046.078.132.132,0,0,0-.019.088,1.129,1.129,0,0,1,0,.138.08.08,0,0,1-.008.029c-.013.027-.025.056-.037.084s0,.051-.017.074a.109.109,0,0,0-.017.058.034.034,0,0,1,0,.015.523.523,0,0,1-.045.1.306.306,0,0,0-.039.065.5.5,0,0,1-.043.063.165.165,0,0,0-.011.029.218.218,0,0,0-.028.086c-.013.033-.025.067-.041.1a.127.127,0,0,0-.01.06c0,.025,0,.051,0,.076q.007.091.014.183h0c0,.081.009.163.014.244a.313.313,0,0,0,.005.046.084.084,0,0,0,.012.028.117.117,0,0,1,.019.057c0,.01,0,.02,0,.03a.052.052,0,0,0,.011.028.1.1,0,0,1,.022.056.152.152,0,0,0,.028.086.057.057,0,0,1,.008.029.2.2,0,0,0,.035.1.382.382,0,0,1,.035.067c.006.014.006.031.013.044.032.058.065.115.1.173a.346.346,0,0,0,.028.036l.009.009c.009.014.02.027.03.04a.193.193,0,0,0,.032.041.519.519,0,0,0,.1.094,3.869,3.869,0,0,1,.344.277.315.315,0,0,0,.124.066c.109.031.22.057.328.089a.277.277,0,0,0,.151.008.6.6,0,0,1,.211.006.759.759,0,0,0,.569-.11A.487.487,0,0,1,7.51,67.2a.484.484,0,0,0,.369-.229,3.969,3.969,0,0,1,.634-.434.654.654,0,0,0,.132-.083,1.343,1.343,0,0,1,.264-.169.206.206,0,0,0,.1-.079c.016-.028.037-.059.005-.09a.149.149,0,0,1,.016-.023c.01-.012.022-.022.03-.035a.256.256,0,0,1,.085-.064.158.158,0,0,1,.046-.019c.134.041.212-.027.288-.132a1.352,1.352,0,0,1,.375-.277.667.667,0,0,0,.371-.224,3.627,3.627,0,0,1,.412-.328c.068-.047.15-.084.18-.182A.142.142,0,0,1,10.9,64.8a.076.076,0,0,0,.029-.008.6.6,0,0,0,.055-.027l.031-.02c.073.016.112-.026.147-.077a.459.459,0,0,1,.189-.141c.118-.06.229-.135.342-.2a.1.1,0,0,0,.039-.041.636.636,0,0,1,.27-.244,1.7,1.7,0,0,0,.446-.328.219.219,0,0,1,.107-.067.577.577,0,0,0,.2-.126,2.047,2.047,0,0,1,.538-.366.169.169,0,0,0,.089-.068.5.5,0,0,1,.2-.173,1.969,1.969,0,0,0,.263-.2.525.525,0,0,1,.239-.115.169.169,0,0,0,.132-.094.364.364,0,0,1,.276-.2.222.222,0,0,0,.149-.1.4.4,0,0,1,.271-.188.191.191,0,0,0,.133-.076.975.975,0,0,1,.335-.3.333.333,0,0,1,.155-.067.212.212,0,0,0,.173-.111.334.334,0,0,1,.156-.141.874.874,0,0,0,.274-.223.38.38,0,0,1,.174-.119.454.454,0,0,0,.209-.144.467.467,0,0,1,.137-.124,3.748,3.748,0,0,0,.558-.366,2.743,2.743,0,0,1,.311-.2,1.645,1.645,0,0,0,.688-.531.108.108,0,0,1,.16-.025v0a.066.066,0,0,0,.018.025l.053.046.02.017.066.058a.088.088,0,0,0,.017.009c.024.018.048.036.071.056a1.854,1.854,0,0,1,.164.136.09.09,0,0,1,.014.025A.087.087,0,0,0,18.83,60l.03.026a.208.208,0,0,0,.148.082.249.249,0,0,1,.152.07.152.152,0,0,1,.033.048.481.481,0,0,0,.055.06.4.4,0,0,0,.176.117.456.456,0,0,1,.156.092.145.145,0,0,1,.033.047.085.085,0,0,0,.019.024c.009.01.02.017.03.026a.288.288,0,0,0,.164.114.16.16,0,0,1,.064.029,2.684,2.684,0,0,1,.373.309.409.409,0,0,0,.14.1.789.789,0,0,1,.194.122.124.124,0,0,1,.012.016l.008.013a.468.468,0,0,0,.074.071.525.525,0,0,0,.146.092.561.561,0,0,1,.138.086.167.167,0,0,1,.02.026c.009.018.021.035.031.053a.213.213,0,0,0,.051.057.3.3,0,0,0,.184.085.269.269,0,0,1,.127.055c.113.086.227.171.336.263a2.833,2.833,0,0,0,.423.288c.148.086.252.232.419.292l.007,0,.051.045a.219.219,0,0,1,.047.06.093.093,0,0,0,.045.04l.007,0a.5.5,0,0,0,.109.078,1.628,1.628,0,0,1,.262.177l.034.03c.012.01.025.018.037.027h0l.08.063c.06.046.129.077.186.126l.066.058c.1.091.2.179.3.269a1.108,1.108,0,0,0,.283.186.545.545,0,0,1,.17.114.186.186,0,0,1,.022.039.186.186,0,0,0,.055.072l.012.01a.266.266,0,0,0,.129.084.43.43,0,0,1,.075.04,3.118,3.118,0,0,1,.375.242l.024.02a.144.144,0,0,0,.026.016l.084.062a2.1,2.1,0,0,1,.213.164.113.113,0,0,1,.012.021.065.065,0,0,0,.008.013.452.452,0,0,0,.058.057.207.207,0,0,0,.137.088.317.317,0,0,1,.212.123l0,0a.375.375,0,0,0,.046.079.385.385,0,0,0,.057.053.487.487,0,0,0,.251.177.694.694,0,0,1,.277.146l.011.01c.024.021.047.042.07.065s.06.062.091.093l.008.016a.493.493,0,0,0,.09.083.117.117,0,0,0,.027.015l.011,0a.724.724,0,0,0,.2.111.19.19,0,0,1,.046.033,3.2,3.2,0,0,0,.549.323,2.267,2.267,0,0,0,.616.154.346.346,0,0,0,.171,0,1.913,1.913,0,0,1,.293-.079,2.641,2.641,0,0,1,.479-.057c.065,0,.139.064.194-.024,0,0,.027,0,.039.01s.044,0,.067,0c.126-.044.261-.041.389-.072.094-.023.193,0,.282-.03.135-.038.273-.02.408-.047a2.334,2.334,0,0,0,.283-.03.233.233,0,0,1,.155,0,.338.338,0,0,0,.22-.009A.25.25,0,0,0,31.079,66h0l.238-.084a.744.744,0,0,1-.2.027.98.98,0,0,1-.266-.039M10.47,52.684a.068.068,0,0,1,.015-.026h0v0l.015-.016.021-.006a.071.071,0,0,1,.022,0,.08.08,0,0,1,0,.16c-.006,0-.011,0-.01,0a.079.079,0,0,1-.028-.009l-.011-.007a.057.057,0,0,1-.017-.023.024.024,0,0,1-.007-.011l0-.007v0a.088.088,0,0,1,0-.034.077.077,0,0,1,0-.012m-.013,2.625a.089.089,0,0,1,.029-.051.081.081,0,0,1,.066-.032.093.093,0,0,1,.041.01.071.071,0,0,1,.033.093.027.027,0,0,0,0,.017.022.022,0,0,1,0,.009h0a.078.078,0,0,1-.011.031.049.049,0,0,1-.006.01.062.062,0,0,1-.025.017.028.028,0,0,1-.011.007H10.56l-.017,0-.02,0-.01,0-.009,0-.006.012-.043-.013V55.4c0-.006,0-.012,0-.018a.312.312,0,0,1,0-.077M7.021,50.531a.026.026,0,0,1-.012,0L7,50.54l-.008,0h0l-.014,0a.079.079,0,0,1-.068-.08.048.048,0,0,1,.039-.045h.029l.017,0c.042.011.066.037.062.068a.067.067,0,0,1-.028.045m1.169.45a.088.088,0,0,1-.071.094H8.111a.055.055,0,0,1-.04-.022.129.129,0,0,1-.033-.106.068.068,0,0,1,.007-.015A.3.3,0,0,1,8.06,50.9l0-.009a.063.063,0,0,1,.058-.03h.013c.022,0,.05.013.054.059,0,.007,0,.013,0,.021v0h0v.034Zm1.331,7.327a.079.079,0,0,1-.031-.006H9.484a.057.057,0,0,1-.063-.054.069.069,0,0,1,.043-.076.077.077,0,0,1,.046-.023l.01,0h.023l.024.019a.082.082,0,0,1,.031.079.076.076,0,0,1-.077.065M9.8,56.59h0a.1.1,0,0,1-.014.033.151.151,0,0,1-.013.018.142.142,0,0,1-.022.021l-.025.016-.026.012L9.67,56.7l-.038.006H9.614a.149.149,0,0,1-.1-.049.13.13,0,0,1-.037-.093.211.211,0,0,1,.178-.162h0a.143.143,0,0,1,.094.058.182.182,0,0,1,.052.122.015.015,0,0,1,0,.009m-.349-1.4a.09.09,0,0,1,.022-.067l.009-.007a.115.115,0,0,1,.071-.029h.01a.1.1,0,0,1,.106.087.088.088,0,0,1-.021.067l-.006.005,0,0a.114.114,0,0,1-.071.028h-.01a.1.1,0,0,1-.108-.087m.385-2.636a.075.075,0,0,1-.026.106l-.008,0h0a.075.075,0,0,1-.025.008l-.008,0h0l-.01,0-.009,0a.072.072,0,0,1-.022-.009l-.007-.006,0,0a.059.059,0,0,1-.017-.019.029.029,0,0,0-.014-.012.075.075,0,0,1-.037-.06v-.021l0-.022s.006-.009.009-.008a.088.088,0,0,1,.027-.026l0,0,.005,0,0,0a.068.068,0,0,1,.026,0,.076.076,0,0,1,.041.012.211.211,0,0,1,.071.07m-.318-1.281a.05.05,0,0,1,.051-.038h.012c.083.013.21.147.2.232a.138.138,0,0,1-.068.11.067.067,0,0,1-.031.007.064.064,0,0,1-.029-.006.3.3,0,0,1-.134-.306m-.089,3.153,0,0,0,0,.007,0a.122.122,0,0,1,.076-.024h.006c.023,0,.065,0,.07.055a.092.092,0,0,1-.023.074l0,0,0,0,0,0h0a.122.122,0,0,1-.079.025h0c-.02,0-.068,0-.074-.056a.092.092,0,0,1,.022-.073m-.064,2.9a.148.148,0,0,1,.114-.129.18.18,0,0,1,.032,0c.055,0,.084.038.109.095l.005.01a.077.077,0,0,1,.013.036v0l0,0s0,.041,0,.051a.485.485,0,0,1-.062.253.031.031,0,0,1-.008.011.082.082,0,0,1-.011.013l-.014.01a.049.049,0,0,1-.018.006h0l-.006,0H9.477l-.006-.01h0a.081.081,0,0,1-.045-.073.5.5,0,0,1-.062-.28m-.23-1.532v-.016a.135.135,0,0,1,.036-.107.129.129,0,0,1,.087-.049.093.093,0,0,1,.035.007.1.1,0,0,1,.062.1s0,.009,0,.015H9.34v0l.011,0v.014a.15.15,0,0,0,0,.016.088.088,0,0,1-.034.086l-.019.014a.224.224,0,0,1-.045.026h0l-.007,0,0-.011h0v.012l-.011,0h0l-.007,0h0a.092.092,0,0,1-.033-.007c-.055-.023-.053-.076-.052-.115Zm-.586,3.6a.083.083,0,0,1-.045.054.1.1,0,0,1-.027.007l-.008,0-.008,0h0l-.007,0h0l-.018,0H8.422l-.022,0a.18.18,0,0,1-.042-.008.088.088,0,0,1-.055-.059.093.093,0,0,1,.015-.083.023.023,0,0,1,.007-.006h0a.1.1,0,0,1,.03-.021l.015-.007a.173.173,0,0,1,.04-.007l.011,0h0a.131.131,0,0,1,.106.047.093.093,0,0,1,.013.077m.329-.339a.1.1,0,0,1-.075.02h0a.158.158,0,0,1-.091-.032l-.01-.007-.006,0,0,0a.127.127,0,0,1-.022-.034.112.112,0,0,1-.011-.051.11.11,0,0,1,.1-.088h.02a.122.122,0,0,1,.09.027.126.126,0,0,1,.031.1.1.1,0,0,1-.019.077m-.008-2.171a.108.108,0,0,1,.078-.034h.006a.146.146,0,0,1,.139.114.112.112,0,0,1-.03.08.131.131,0,0,1-.084.051H8.969a.113.113,0,0,1-.072-.03.026.026,0,0,1-.007-.008l-.011-.012a.142.142,0,0,1-.036-.079.109.109,0,0,1,.024-.082m-.015,1.247h.007a.11.11,0,0,1,.088.05.292.292,0,0,1,.042.159.115.115,0,0,1-.023.08v0h0l0,0,0,0a.057.057,0,0,1-.026.009l-.008,0,0,0h0a.137.137,0,0,1-.036-.005.178.178,0,0,1-.111-.1.165.165,0,0,1,0-.14.107.107,0,0,1,.087-.064M8.6,56.33a.112.112,0,0,1,.081-.028h0c.076,0,.109.04.108.125a.194.194,0,0,1-.007.048.13.13,0,0,1-.014.029l-.007.011,0,.007,0,0a.082.082,0,0,1-.057.022H8.689a.142.142,0,0,1-.122-.139A.105.105,0,0,1,8.6,56.33m-.12,1.124c.024-.025.063-.029.126-.03h.053a.026.026,0,0,1,.013,0h.007l.012,0,.01,0,0,0s.007.009.007.009h0a.069.069,0,0,1,.009.015.148.148,0,0,1,.011.052.213.213,0,0,1-.035.117.142.142,0,0,1-.073.063.144.144,0,0,1-.049.009.177.177,0,0,1-.048-.007.11.11,0,0,1-.074-.121c0-.061,0-.1.026-.122M8.161,58.67l.007,0,.006,0,.017-.01a.52.52,0,0,1,.066-.025.431.431,0,0,0,.059-.021.065.065,0,0,1,.028-.006.138.138,0,0,1,.085.045c.038.034.011.084,0,.106a.5.5,0,0,1-.208.18l-.024.014a.067.067,0,0,1-.034.01.062.062,0,0,1-.018,0c-.006,0-.01-.006-.009-.006a.069.069,0,0,1-.016-.012.116.116,0,0,1-.024-.033.209.209,0,0,1-.012-.065c0-.008,0-.016,0-.024a.146.146,0,0,1,.062-.13.09.09,0,0,1,.019-.013M8,58.1a.1.1,0,0,1,.071-.03H8.08c.058,0,.059.05.059.072,0,0,0,.007,0,.016a.128.128,0,0,0,0,.019.08.08,0,0,1-.017.06.064.064,0,0,1-.037.018H8.069a.089.089,0,0,1-.054-.018.1.1,0,0,1-.037-.065A.092.092,0,0,1,8,58.1M7.888,61.2a.081.081,0,0,1,.078-.072.062.062,0,0,0,.007-.011A.078.078,0,0,1,8,61.091a.084.084,0,0,1,.022-.01l.008,0,.008,0h0a.017.017,0,0,1,.01,0,.083.083,0,0,1,.02.005.092.092,0,0,1,.023.013.076.076,0,0,1,.013.013l.006.005,0,0a.019.019,0,0,1,0,.009.062.062,0,0,1,0,.014.066.066,0,0,1,0,.022.085.085,0,0,1-.009.031.171.171,0,0,1-.145.091H7.961c-.007,0-.012,0-.01,0a.065.065,0,0,1-.028-.009l-.013-.01a.055.055,0,0,1-.015-.023v0a.044.044,0,0,1-.012-.013ZM7.04,63.041a.025.025,0,0,1-.01,0h0a.054.054,0,0,1-.02.007l-.009,0H6.986a.083.083,0,0,1-.056-.029.071.071,0,0,1-.014-.053c.006-.045.044-.045.063-.045h.033a.062.062,0,0,1,.046.018l.005.007v0h0a.053.053,0,0,1,0,.027.084.084,0,0,1-.029.055m.069-1.849a.1.1,0,0,1-.007.031l0,0v0l0,.008,0,0a.027.027,0,0,1-.012.005.039.039,0,0,1-.016,0h-.01a.077.077,0,0,1-.07-.079c0-.045.043-.047.058-.048h.016a.066.066,0,0,1,.028.01H7.09l0,.006.006.007v0a.063.063,0,0,1,.007.029l0,0Zm.585-1.145-.016,0-.02.006-.026-.031a.078.078,0,0,1-.014-.093.252.252,0,0,1,.028-.046.082.082,0,0,1,.065-.032.1.1,0,0,1,.048.014l.007,0,0,0a.068.068,0,0,1,.012.1.233.233,0,0,0-.023.038.07.07,0,0,1-.064.041m13.792.232a.11.11,0,1,1,.107-.109.1.1,0,0,1-.107.109m.37,1.1a.11.11,0,1,1,.108-.11.105.105,0,0,1-.108.11m1.236.277H22.9a.1.1,0,0,1-.081-.035.114.114,0,0,1-.027-.074.106.106,0,0,1,.108-.11h.194a.11.11,0,0,1,0,.219m.774.944a.118.118,0,0,1-.059.016.029.029,0,0,1-.011,0l-.016,0a.1.1,0,0,1-.026-.011.064.064,0,0,1-.012-.011l.007-.009,0,0h0l-.009.006,0,0-.022,0h-.012l-.012,0a.082.082,0,0,1-.033-.014l-.007,0,0,0a.1.1,0,0,1-.034-.085.172.172,0,0,1,.039-.1.117.117,0,0,1,.046-.033.123.123,0,0,1,.048-.011h.006a.2.2,0,0,1,.164.121.107.107,0,0,1-.043.148m.264-.681a.11.11,0,1,1,.107-.11.105.105,0,0,1-.107.11m.33.858a.11.11,0,1,1,.107-.11.105.105,0,0,1-.107.11" transform="translate(0 -29.795)" fill="#ce1329"/>
      <line id="Line_40" data-name="Line 40" transform="translate(15.663 6.561)" fill="#ce1329"/>
      <path id="Path_2508" data-name="Path 2508" d="M100.059,46.884a1.861,1.861,0,0,1-.161.1l-.079.047-.164.1-.018.011c-.135.082-.275.168-.409.256a.9.9,0,0,0-.126.108,1.056,1.056,0,0,1-.122.107c-.041.03-.085.058-.131.088l-.018.012c-.048.031-.1.064-.146.1-.084.061-.171.115-.255.168a2.341,2.341,0,0,0-.5.381,1.355,1.355,0,0,1-.254.2l-.028.019a.656.656,0,0,0-.067.055.673.673,0,0,1-.061.053,2.089,2.089,0,0,1-.307.182,1.164,1.164,0,0,0-.357.253,1.115,1.115,0,0,1-.37.262,1.14,1.14,0,0,0-.337.234,1.274,1.274,0,0,1-.431.295,1.258,1.258,0,0,0-.313.2l-.021.017-.032.025-.183.146c-.242.192-.491.39-.753.566l-.01.007c-.158.106-.321.215-.483.328a1.109,1.109,0,0,1-.108.064l-.006,0a1.135,1.135,0,0,0-.118.069,1.313,1.313,0,0,0-.132.112,1.03,1.03,0,0,1-.164.133.509.509,0,0,0-.057.043.416.416,0,0,1-.067.048l-.015.007a3.211,3.211,0,0,0-.594.377l-.027.02c-.1.073-.2.155-.322.258s-.251.2-.418.318c-.109.077-.223.153-.332.227l-.034.023c-.111.075-.226.152-.337.23s-.227.147-.348.22l-.073.044a.783.783,0,0,0-.2.156,1.84,1.84,0,0,1-.332.286l-.012.009-.081.06a4.84,4.84,0,0,1-.431.28c-.135.081-.274.165-.4.26l-.033.025a.455.455,0,0,1-.188.1.084.084,0,0,0-.055.039.15.15,0,0,0-.016.111,1.644,1.644,0,0,0,.066.228c.1.245.18.5.251.746a.693.693,0,0,0,.071.153l.047-.04c.073-.025.1-.1.155-.139a2.144,2.144,0,0,1,.359-.256.8.8,0,0,0,.238-.178.369.369,0,0,1,.171-.125.3.3,0,0,0,.139-.1,1.5,1.5,0,0,1,.214-.188c.25-.173.494-.354.744-.527a3.1,3.1,0,0,1,.317-.241.914.914,0,0,0,.2-.16.767.767,0,0,1,.231-.164.634.634,0,0,0,.164-.113,2.7,2.7,0,0,1,.457-.337.354.354,0,0,0,.1-.079A.852.852,0,0,1,93.225,53a.639.639,0,0,0,.07-.048c.152-.1.279-.228.423-.337s.285-.221.431-.327.308-.206.458-.314c.177-.128.355-.256.523-.395a2.238,2.238,0,0,1,.346-.249.2.2,0,0,0,.078-.06.673.673,0,0,1,.255-.2.666.666,0,0,0,.17-.125,1.585,1.585,0,0,1,.242-.2,3.51,3.51,0,0,0,.649-.485.335.335,0,0,1,.059-.04,4.735,4.735,0,0,0,.465-.329,2.268,2.268,0,0,1,.184-.158q.263-.194.531-.382a.365.365,0,0,0,.078-.061,4.119,4.119,0,0,1,.313-.309c.134-.127.25-.272.394-.39a.252.252,0,0,0,.054-.066c.119-.2.274-.385.4-.584a.752.752,0,0,0,.116-.208c0-.019.094-.08.114-.11.1-.139.19-.28.285-.419h0l.286-.416a.512.512,0,0,1-.093.088m-4.63,4.166a.544.544,0,0,1-.156.112.238.238,0,0,1-.1.043l-.008,0h0a.051.051,0,0,1-.032-.01c-.056-.044-.011-.2.008-.227a.113.113,0,0,1,.077-.047l.01,0a.4.4,0,0,0,.055-.021l.005,0,.009,0a.1.1,0,0,1,.032-.005h0a.11.11,0,0,1,.026,0h.007a.133.133,0,0,1,.025.01l.005,0h0a.131.131,0,0,1,.023.016l.007.007a.1.1,0,0,1,.014.014.08.08,0,0,1-.009.106m.183-.562a.114.114,0,0,1-.079.054l-.021,0-.019,0a.1.1,0,0,1-.032-.012.111.111,0,0,1-.045-.051.091.091,0,0,1,.024-.111.107.107,0,0,1,.079-.037.1.1,0,0,1,.067.027l.008.007a.1.1,0,0,1,.016.124m.6-.068a.028.028,0,0,1-.011,0h0a.067.067,0,0,1-.021.006l-.008,0h-.012l-.01,0a.1.1,0,0,1-.035-.015l-.006,0-.006,0,0,0a.071.071,0,0,1,0-.094A.035.035,0,0,1,96.1,50.3a.109.109,0,0,1,.02-.019l.018-.01a.123.123,0,0,1,.026-.007l.008,0h.006c.005,0,.009,0,.007,0a.072.072,0,0,1,.034.008.052.052,0,0,1,.012.007.068.068,0,0,1,.02.028l0,0v.006a.089.089,0,0,1-.045.1m1.3-.932a.1.1,0,1,1,.1-.1.1.1,0,0,1-.1.1" transform="translate(-61.276 -32.214)" fill="#ce1329"/>
      <path id="Path_2509" data-name="Path 2509" d="M47.78,48.044a.128.128,0,0,0,.106.017.118.118,0,0,0,.05-.029,3.525,3.525,0,0,1,1.895-.973.3.3,0,0,0,.237-.31.323.323,0,0,0-.267-.329,2.078,2.078,0,0,0-2.086,1.446.151.151,0,0,0,.066.177" transform="translate(-32.84 -31.946)"/>
      <path id="Path_2510" data-name="Path 2510" d="M72.167,47.2a3.524,3.524,0,0,1,1.88,1,.119.119,0,0,0,.049.03.128.128,0,0,0,.107-.016.152.152,0,0,0,.068-.176,2.078,2.078,0,0,0-2.064-1.477.324.324,0,0,0-.272.325.3.3,0,0,0,.232.313" transform="translate(-49.519 -32.044)"/>
      <path id="Path_2511" data-name="Path 2511" d="M58.37,66.087c-.055.119.04.279.254.427a2.021,2.021,0,0,0,1.318.521,1.606,1.606,0,0,0,.471-.059,3.125,3.125,0,0,0,.854-.442c.216-.145.313-.3.26-.423-.044-.1-.179-.134-.345-.094l-.4.1c-.189.046-.189.046-.548.12l-.037.007a1.141,1.141,0,0,1-.495,0l-.03-.007c-.363-.08-.363-.08-.55-.13l-.4-.1c-.166-.043-.3-.008-.347.089" transform="translate(-40.171 -45.419)"/>
      <path id="Path_2512" data-name="Path 2512" d="M50.083,54.7a1.723,1.723,0,0,0-1.383.778.538.538,0,0,0,.013.627.36.36,0,0,0,.378.034,3.125,3.125,0,0,1,1.058-.212,1.8,1.8,0,0,1,.824.2.713.713,0,0,0,.35.037.478.478,0,0,0,.262-.19.6.6,0,0,0-.017-.716,1.725,1.725,0,0,0-1.485-.554" transform="translate(-33.461 -37.653)"/>
      <path id="Path_2513" data-name="Path 2513" d="M68.918,56.289a.716.716,0,0,0,.35-.031,1.8,1.8,0,0,1,.826-.183,3.136,3.136,0,0,1,1.055.227.359.359,0,0,0,.378-.028.536.536,0,0,0,.023-.627,1.881,1.881,0,0,0-2.864-.266.6.6,0,0,0-.027.715.475.475,0,0,0,.259.194" transform="translate(-47.192 -37.75)"/>
      <path id="Path_2514" data-name="Path 2514" d="M56.916,69.738c-.207-.189-.434-.491-.605-.357-.108.084-.035.194-.019.338.012.111,0,.22-.177.4-.134.137-.259.257-.38.361a5.947,5.947,0,0,1-1.054.74,5.161,5.161,0,0,1-4.877-.036,5.939,5.939,0,0,1-1.043-.756c-.119-.105-.243-.227-.374-.366-.173-.187-.185-.3-.172-.407.018-.143.093-.252-.014-.338-.169-.136-.4.162-.61.348-.311.277-.476.346-.357.553s.323-.074.469.144h0a6.723,6.723,0,0,0,3.34,2.759,4.159,4.159,0,0,0,1.177.188h.013a4.164,4.164,0,0,0,1.179-.171,6.727,6.727,0,0,0,3.381-2.71h0c.149-.215.353.063.471-.137s-.041-.277-.349-.558" transform="translate(-32.489 -47.696)"/>
      <path id="Path_2515" data-name="Path 2515" d="M208.175,50.427c-2.273,0-3.787,2.313-3.787,2.313l.77-1.984h-3.78l-1.9,5.342c-.166.313-.33.62-.476.887-2.141,3.949-4.344,6.139-4.823,6.139-.229,0-.25-.242-.076-.7s1.157-3.3,3.1-8.393h-3.616c-.628,1.611-1.958,5.387-2.509,6.845-.967,1.2-2.409,2.21-3.01,2.21-.67,0-.67-.669-.67-.883,0-2.083,2.394-9.7,6.969-9.7a7.482,7.482,0,0,1,2.393.362l.686-1.761a6.285,6.285,0,0,0-3.282-.74c-6.878,0-10.378,7.457-10.378,11.078,0,3.5,2.041,3.558,2.939,3.558a6.943,6.943,0,0,0,3.9-1.757C190.764,64.464,191.7,65,193.079,65c1.391,0,2.837-1.11,4.18-2.662l-.95,2.671h3.78l3.428-9.612s1.015-1.873,2.581-1.873a2.156,2.156,0,0,1,1.479.376l2.382-2.839a2.272,2.272,0,0,0-1.784-.631" transform="translate(-126.515 -34.667)" fill="#fff"/>
      <path id="Path_2516" data-name="Path 2516" d="M384.825,40.473a2.429,2.429,0,0,0,1.821-1.124,3.068,3.068,0,0,0,.406-2.7l-2.121.011a3.72,3.72,0,0,1,.33,1.271,2.608,2.608,0,0,1-.866,1.805.341.341,0,0,0-.149.31q0,.423.579.423" transform="translate(-264.508 -25.232)" fill="#fff"/>
      <path id="Path_2517" data-name="Path 2517" d="M300.993,38.829a4.37,4.37,0,0,0-2.41,1.533l0,.005a52.1,52.1,0,0,1-4.214,6.27c-2.33,2.925-10.375,8.8-7.966.61a8.41,8.41,0,0,0,6.925-2.906c2.018-2.324,1.927-7.165-3.794-5.445a10.7,10.7,0,0,0-6.893,7.575l-.118.165c-1.794,2.512-10.423,9.258-7.966.61a8.41,8.41,0,0,0,6.925-2.906c2.018-2.324,1.927-7.165-3.794-5.445-4.316,1.3-6.822,5.549-7.336,9.758-.084.074-.166.143-.244.207a19.292,19.292,0,0,1-3.014,2.153c-.165.079-.5.214-.394-.144s6.759-17.688,6.759-17.688h-3.846l-2.088,5.525c-5.813-1.112-9.723,3.265-11.087,9.509a12.335,12.335,0,0,0-.144,2.511c.259,2.136,2.7,3.911,6.939.706-.01,1.12,2.219,3.553,7.014-.575l.16-.14a2.512,2.512,0,0,0,1.083,1.706c1.755,1.2,6.562,1.452,10.652-3.037a3.58,3.58,0,0,0,1.193,3.037c1.876,1.508,6.179.887,9.739-2.071.265,1.707,2,2.84,4.1,2.84,2.805,0,5.413-1.69,5.413-4.827,0-3.059-1.826-4.578-1.826-6.468a1.194,1.194,0,0,1,.987-1.123,2.1,2.1,0,0,1,1.544.683l1.72-1.99a4.54,4.54,0,0,0-4.02-.638M290.5,40.484c.918-.54,1.529-.557,1.278,1.033-.088.555-.848,3.335-4.732,4.179.852-2.1,2.538-4.673,3.453-5.211m-11.846,0c.918-.54,1.529-.557,1.278,1.033-.088.555-.848,3.335-4.732,4.179.852-2.1,2.538-4.673,3.453-5.211M264.2,47.373c-.915,2.045-1.808,2.978-3.109,3.549-.672.3-1.163.21-.946-1.414.234-1.744,2.85-9.836,6.665-8.849,0,0-2.157,5.7-2.61,6.714m32.333,4.163a2.034,2.034,0,0,1-2.029-2.119,1.855,1.855,0,0,1,.1-.547q.352-.395.685-.825c1.2-1.567,2.2-2.978,2.739-3.766.361,1.414,1.11,2.184,1.11,4.173,0,1.292-.945,3.083-2.6,3.083" transform="translate(-176.408 -22.842)" fill="#fff"/>
      <path id="Path_2518" data-name="Path 2518" d="M118.827,33.182l-3.452,8.935H109.89l3.332-8.935h-4.27s-2.8,6.854-3.552,8.935c-5.1-.036-13.477,2.13-14.6,7.392-.837,3.91,1.4,6.194,6.208,6.316,8.54.215,10.945-8.585,12.137-11.769h5.518l-3.964,10.56h4.377l8.134-21.433ZM100.929,52.3c-2.731,3.074-6.84,1.545-6.276-2.129.562-2.852,3.521-6.206,10.223-6.073-1.847,5.691-2.632,6.607-3.947,8.2" transform="translate(-62.383 -22.842)" fill="#fff"/>
    </g>
  </g>
</svg>
